<?xml version="1.0" standalone="no"?>
<!DOCTYPE svg PUBLIC "-//W3C//DTD SVG 20010904//EN"
 "http://www.w3.org/TR/2001/REC-SVG-20010904/DTD/svg10.dtd">
<svg version="1.0" xmlns="http://www.w3.org/2000/svg"
 width="706.000000pt" height="706.000000pt" viewBox="0 0 706.000000 706.000000"
 preserveAspectRatio="xMidYMid meet">

<g transform="translate(0.000000,706.000000) scale(0.100000,-0.100000)"
fill="#000" stroke="none">
<path d="M410 5873 c-25 -2 -49 -8 -54 -14 -6 -5 -17 -9 -26 -9 -28 0 -89 -59
-100 -98 -16 -53 -8 -1876 9 -1952 26 -122 50 -207 76 -265 7 -16 19 -45 26
-62 8 -18 17 -33 21 -33 5 0 8 -9 8 -20 0 -11 4 -20 8 -20 5 0 15 -12 23 -27
8 -16 22 -35 31 -44 10 -9 18 -19 18 -23 0 -7 120 -127 159 -158 12 -10 26
-18 31 -18 6 0 10 -4 10 -10 0 -5 7 -10 15 -10 8 0 15 -4 15 -10 0 -5 7 -10
15 -10 8 0 15 -4 15 -10 0 -5 9 -10 20 -10 11 0 20 -4 20 -10 0 -5 9 -10 20
-10 11 0 20 -4 20 -10 0 -5 11 -10 24 -10 13 0 26 -5 28 -12 3 -8 36 -12 103
-12 67 0 100 4 103 12 2 7 10 12 17 12 19 0 101 84 117 120 7 16 16 30 20 30
5 0 8 9 8 19 0 11 5 23 10 26 5 3 10 17 10 30 0 13 5 27 10 30 13 8 13 115 0
115 -5 0 -10 10 -10 23 0 24 -59 97 -79 97 -7 0 -9 5 -6 10 3 6 -3 10 -15 10
-12 0 -19 4 -16 8 2 4 -8 13 -23 20 -44 19 -171 147 -171 172 0 6 -4 10 -10
10 -5 0 -10 9 -10 20 0 11 -4 20 -10 20 -5 0 -10 11 -10 25 0 14 -4 25 -10 25
-5 0 -10 18 -10 39 0 22 -4 43 -10 46 -7 4 -10 318 -10 911 0 705 -3 909 -12
927 -20 34 -78 87 -97 87 -9 0 -21 4 -27 10 -11 11 -223 21 -294 13z"/>
<path d="M2140 5054 c-113 -19 -157 -30 -215 -54 -11 -5 -35 -14 -52 -22 -18
-7 -33 -16 -33 -20 0 -5 -9 -8 -20 -8 -11 0 -20 -4 -20 -8 0 -5 -12 -15 -27
-23 -42 -21 -176 -158 -207 -211 -35 -61 -63 -141 -81 -236 -21 -110 -21 -794
0 -902 23 -119 37 -157 89 -245 34 -56 137 -162 179 -184 15 -8 27 -18 27 -23
0 -4 9 -8 20 -8 11 0 20 -4 20 -10 0 -5 7 -10 15 -10 8 0 15 -4 15 -10 0 -5 9
-10 20 -10 11 0 20 -4 20 -10 0 -5 11 -10 25 -10 14 0 25 -4 25 -10 0 -5 14
-10 30 -10 17 0 30 -4 30 -10 0 -5 18 -10 39 -10 22 0 43 -4 46 -10 8 -13 362
-13 370 0 3 6 21 10 40 10 19 0 37 5 40 10 3 6 17 10 30 10 13 0 27 5 30 10 3
6 15 10 26 10 10 0 19 5 19 10 0 6 9 10 20 10 11 0 20 5 20 10 0 6 9 10 20 10
11 0 20 5 20 10 0 6 6 10 13 10 7 0 23 9 35 20 12 11 24 20 27 20 22 0 147
136 168 183 6 15 15 27 19 27 5 0 8 9 8 20 0 11 5 20 10 20 6 0 10 11 10 24 0
14 5 28 10 31 6 3 10 19 10 36 0 16 4 29 9 29 17 0 23 138 23 510 0 361 -5
476 -23 494 -5 6 -9 20 -9 33 0 13 -4 31 -9 41 -5 9 -21 42 -35 72 -14 30 -36
68 -48 84 -38 49 -126 136 -138 136 -5 0 -10 5 -10 10 0 6 -7 10 -15 10 -8 0
-15 5 -15 10 0 6 -6 10 -14 10 -8 0 -16 4 -18 8 -4 11 -124 66 -178 81 -25 8
-58 18 -75 23 -32 10 -292 20 -335 12z m190 -524 c0 -5 7 -10 15 -10 9 0 27
-11 41 -25 53 -53 54 -65 54 -463 0 -203 -3 -384 -6 -401 -8 -37 -72 -111 -96
-111 -9 0 -20 -4 -23 -10 -3 -5 -26 -10 -51 -10 -28 0 -43 4 -39 10 4 6 -5 10
-20 10 -32 0 -85 52 -102 101 -16 45 -19 784 -3 794 6 3 10 13 10 21 0 16 54
74 86 92 24 14 134 16 134 2z"/>
<path d="M4040 5050 c-108 -17 -296 -93 -346 -138 -11 -10 -34 -28 -52 -41
-43 -30 -82 -69 -82 -81 0 -6 -4 -10 -10 -10 -5 0 -10 -5 -10 -10 0 -6 -9 -20
-20 -32 -11 -12 -20 -28 -20 -35 0 -7 -4 -13 -10 -13 -5 0 -10 -9 -10 -20 0
-11 -4 -20 -10 -20 -5 0 -10 -11 -10 -25 0 -14 -4 -25 -10 -25 -5 0 -10 -13
-10 -29 0 -17 -4 -32 -9 -35 -18 -12 -24 -136 -25 -521 0 -261 4 -423 12 -465
6 -36 14 -82 18 -102 3 -21 10 -38 15 -38 5 0 9 -9 9 -19 0 -20 40 -104 53
-109 4 -2 7 -9 7 -16 0 -6 9 -18 20 -26 11 -8 20 -19 20 -25 0 -5 14 -21 32
-35 17 -14 42 -35 54 -48 13 -12 28 -22 34 -22 5 0 10 -4 10 -10 0 -5 7 -10
15 -10 8 0 15 -4 15 -10 0 -5 9 -10 20 -10 11 0 20 -4 20 -10 0 -5 9 -10 20
-10 11 0 20 -4 20 -10 0 -5 11 -10 24 -10 14 0 27 -4 30 -9 10 -15 76 -23 234
-28 102 -3 152 -1 152 7 0 5 13 10 29 10 17 0 33 5 36 10 3 6 15 10 26 10 10
0 19 5 19 10 0 6 7 10 15 10 12 0 15 -18 15 -100 0 -60 -4 -100 -10 -100 -5 0
-10 -11 -10 -25 0 -14 -4 -25 -10 -25 -5 0 -10 -6 -10 -13 0 -7 -14 -23 -31
-37 -17 -14 -37 -31 -44 -37 -8 -7 -22 -13 -32 -13 -11 0 -24 -5 -30 -11 -17
-17 -213 3 -213 22 0 5 -9 9 -20 9 -11 0 -20 5 -20 10 0 6 -9 10 -20 10 -11 0
-20 4 -20 9 0 5 -13 14 -30 21 -16 7 -30 16 -30 20 0 5 -17 12 -37 17 -50 12
-106 -2 -163 -41 -54 -36 -61 -43 -79 -78 -8 -16 -18 -28 -23 -28 -4 0 -8 -9
-8 -20 0 -11 -4 -20 -10 -20 -5 0 -10 -9 -10 -20 0 -11 -4 -20 -10 -20 -6 0
-10 -35 -10 -85 0 -50 4 -85 10 -85 6 0 10 -5 10 -11 0 -6 15 -24 33 -40 48
-43 55 -49 64 -49 4 0 19 -9 33 -20 14 -11 33 -20 43 -20 9 0 17 -4 17 -10 0
-5 9 -10 19 -10 11 0 23 -4 26 -10 3 -6 17 -10 31 -10 13 0 24 -4 24 -10 0 -5
16 -10 35 -10 19 0 35 -4 35 -10 0 -5 20 -10 45 -10 25 0 45 -4 45 -10 0 -6
71 -10 194 -10 119 0 197 4 201 10 3 6 26 10 51 10 24 0 44 5 44 10 0 6 14 10
30 10 17 0 30 5 30 10 0 6 11 10 25 10 14 0 25 5 25 10 0 6 7 10 15 10 14 0
53 18 65 30 3 3 17 11 33 19 15 8 27 18 27 23 0 4 5 8 12 8 15 0 139 128 157
163 8 15 18 27 23 27 4 0 8 9 8 20 0 11 5 20 10 20 6 0 10 9 10 20 0 11 5 20
10 20 6 0 10 11 10 24 0 14 4 27 9 30 11 7 19 52 31 171 11 114 11 1448 -1
1575 -12 134 -20 180 -30 180 -5 0 -9 9 -9 19 0 20 -40 104 -52 109 -5 2 -8
10 -8 17 0 31 -215 225 -249 225 -6 0 -11 5 -11 10 0 6 -7 10 -15 10 -8 0 -29
8 -47 18 -70 39 -196 64 -338 68 -74 1 -160 -1 -190 -6z m232 -522 c35 -20 88
-80 88 -99 0 -10 5 -21 10 -24 6 -4 10 -143 10 -386 0 -246 -4 -379 -10 -379
-5 0 -10 -10 -10 -22 0 -25 -40 -78 -59 -78 -7 0 -9 -4 -6 -10 4 -6 -5 -10
-19 -10 -14 0 -26 -4 -26 -10 0 -5 -22 -10 -50 -10 -27 0 -50 5 -50 10 0 6 -7
10 -16 10 -21 0 -84 63 -84 84 0 9 -4 16 -10 16 -6 0 -10 139 -10 398 0 395 0
397 23 434 35 58 82 87 145 88 29 0 62 -6 74 -12z"/>
<path d="M6035 5054 c-108 -16 -312 -89 -323 -116 -2 -4 -11 -8 -21 -8 -9 0
-23 -9 -31 -20 -8 -11 -18 -20 -22 -20 -27 0 -135 -120 -165 -182 -10 -21 -21
-38 -25 -38 -5 0 -8 -9 -8 -19 0 -11 -4 -23 -10 -26 -5 -3 -10 -17 -10 -30 0
-13 -4 -26 -9 -29 -19 -12 -24 -106 -28 -540 -2 -298 0 -453 7 -460 5 -5 10
-27 10 -48 0 -21 5 -38 10 -38 6 0 10 -9 10 -20 0 -50 90 -199 149 -245 13
-10 39 -34 58 -52 18 -18 38 -33 45 -33 8 0 20 -9 28 -20 8 -11 22 -20 32 -20
10 0 18 -4 18 -10 0 -5 9 -10 20 -10 11 0 20 -4 20 -10 0 -5 11 -10 25 -10 14
0 25 -4 25 -10 0 -5 13 -10 29 -10 17 0 33 -4 36 -10 3 -5 21 -10 40 -10 19 0
37 -4 40 -10 8 -13 362 -13 370 0 3 6 21 10 40 10 19 0 37 5 40 10 3 6 19 10
36 10 16 0 29 5 29 10 0 6 11 10 25 10 14 0 25 5 25 10 0 6 9 10 20 10 11 0
20 5 20 10 0 6 9 10 20 10 11 0 20 4 20 8 0 5 12 15 28 23 15 8 34 22 43 31 9
10 20 18 24 18 4 0 33 27 65 61 56 59 118 166 139 239 5 19 15 53 21 75 8 28
10 178 7 490 -4 426 -7 492 -27 540 -4 11 -14 36 -21 55 -14 37 -61 121 -81
146 -42 49 -88 94 -97 94 -6 0 -11 5 -11 10 0 6 -6 10 -13 10 -7 0 -19 9 -27
20 -8 11 -22 20 -32 20 -10 0 -18 3 -18 8 0 17 -129 72 -230 98 -54 14 -307
27 -365 18z m220 -533 c36 -21 71 -71 85 -120 12 -45 13 -701 1 -754 -11 -44
-50 -107 -68 -107 -7 0 -13 -4 -13 -10 0 -5 -9 -10 -20 -10 -11 0 -20 -4 -20
-10 0 -5 -22 -10 -50 -10 -27 0 -50 5 -50 10 0 6 -7 10 -17 10 -22 0 -91 74
-100 108 -5 15 -8 196 -8 402 l0 375 25 43 c47 83 159 117 235 73z"/>
</g>
</svg>
